<?xml version="1.0" encoding="UTF-8"?>
<svg id="OBJECTS" xmlns="http://www.w3.org/2000/svg" viewBox="0 0 108.54 123.7">
  <defs>
    <style>
      .cls-1 {
        fill: #e8e8e8;
      }
    </style>
  </defs>
  <path class="cls-1" d="m39.22,123.67c2.25-.05,4.51-.16,6.76-.37,4.84-.46,9.68-1.03,14.52-1.5,2.53-.24,5.06-.38,7.6-.51,3.38-.17,6.76-.31,10.15-.39,2.04-.05,4.1-.07,6.13.06,3.23.21,6.47.5,9.69.86,3.89.43,7.74.22,11.56-.56.61-.12,1.23-.33,1.77-.63.99-.55,1.31-1.35,1.04-2.48-.19-.82-.39-1.65-.69-2.44-1.35-3.54-3.42-6.63-6.03-9.37-1.38-1.45-2.97-2.55-4.84-3.32-2.99-1.23-5.93-2.57-8.87-3.86-1.06-4.22-3.39-7.39-7.39-9.25-1.28-.59-2.52-1.27-3.76-1.93-1.56-.82-3.14-1.61-4.64-2.52-1.55-.95-3.02-2.03-4.53-3.05-.24-2.92-.15-6.81.22-8.45,1.68-.78,2.92-2.09,4.04-3.59,1.64-2.22,2.51-4.7,2.83-7.42.13-1.11.34-2.2.5-3.27,1.03-.22,1.95-.32,2.8-.61,3.34-1.15,5.38-3.51,6.19-6.93.72-3.08.37-5.9-2.17-8.12-.21-.18-.38-.4-.61-.65.08-.7.13-1.4.24-2.1.6-4.06.91-8.13.26-12.21-.62-3.88-1.67-7.58-4.98-9.98-.08-1.53,0-2.96-.24-4.33-.51-2.87-1.61-5.54-3.11-8.04-1.71-2.84-4.06-4.84-7.32-5.67-1.09-.28-2.18-.58-3.29-.76-3.18-.51-6.32-.45-9.39.68-.59.22-1.23.32-1.82.53-1.53.54-3.05,1.07-4.56,1.66-1.5.59-2.95,1.37-4.48,1.84-2.29.7-4.63,1.23-6.96,1.76-2.7.61-4.97,1.89-6.82,3.97-2.18,2.44-3.28,5.22-2.98,8.51.06.63.08,1.25.12,1.81-2.38,2.06-3.12,2.99-3.56,5.42-.27,1.5-.42,3.14-.13,4.61.69,3.52,1.46,7.04,2.94,10.35.25.56.36,1.19.54,1.8-.71.5-1.38.89-1.95,1.39-1.66,1.45-2.2,3.37-2.18,5.51.04,4.6,3.06,8.88,8.11,9.64.4.06.81.13,1.27.2.17,1.06.38,2.02.48,3,.32,3.18,1.5,5.99,3.54,8.45.92,1.1,1.95,2.01,3.26,2.63.88.42,1.69.97,2.54,1.46,0,1.26.02,2.38,0,3.5-.03,1.19.1,2.39-.15,3.41-1.3.87-2.45,1.69-3.65,2.43-1.5.92-3.01,1.82-4.56,2.65-1.93,1.03-3.9,1.97-5.84,2.98-1.33.69-2.47,1.64-3.4,2.82-1.36,1.73-2.47,3.6-2.81,5.82-3.32,1.44-6.43,2.76-9.51,4.15-.95.43-1.92.95-2.71,1.62-2.71,2.31-4.88,5.08-6.46,8.29-.78,1.58-1.52,3.18-1.84,4.94-.21,1.17-.04,1.67.95,2.3,1.29.82,2.74,1.08,4.22,1.26,2.17.25,4.34.5,6.51.77,1.4.17,2.79.44,4.19.52,7.75.41,15.5.84,23.26.69Zm29.96-35.26c-.74-.33-.55.55-1.04.62-.19-1.5-.82-2.94-.43-4.63.32.13.62.16.8.33,3.38,2.99,7.47,4.79,11.45,6.73,2.91,1.42,4.72,3.69,6.02,6.54.52,1.14.3,2.03-.57,2.85-1.9,1.8-4.16,2.93-6.68,3.47-4.28.93-8.61,1.57-13,1.65-2.43.04-4.75.59-7.1,1.08-.25.05-.5.08-1.21.18.8-.7,1.21-1.22,1.74-1.5,2.25-1.17,4.52-2.33,7.14-2.45,2.92-.14,5.73-.78,8.41-1.92,1.16-.49,2.3-1.12,3.27-1.89,1.83-1.46,2.56-3.42,1.98-5.81-.07.24-.15.49-.21.73-.64,2.5-2.24,4.2-4.52,5.29-2.83,1.35-5.82,2.19-8.93,2.46-2.78.24-5.13,1.45-7.44,2.8-1.1.64-1.81,1.71-2.46,3.04-.28-.38-.56-.58-.55-.76.11-1.67.66-3.18,1.91-4.33,2.28-2.11,4.62-4.15,6.92-6.23,1.74-1.57,3.28-3.29,4.24-5.47.41-.93.57-1.85.22-2.78Zm-3.6-1.48c0,1.82.12,3.67,1.2,5.34-1.07,1.31-2.22,2.52-3.53,3.61-1.95,1.62-3.8,3.37-5.69,5.06-1.3,1.15-2.11,2.62-2.77,4.19-.16.37-.3.75-.54,1.35-.25-.68-.39-1.16-.59-1.6-.67-1.48-1.48-2.88-2.72-3.98-2.01-1.77-4.03-3.53-6.01-5.34-1.09-.99-2.11-2.06-3.21-3.15,1.35-2.28,1.17-4.78,1.37-7.32.38.05.64.1.9.13,4.29.5,8.25-.58,11.99-2.61.99-.54,1.95-1.14,2.95-1.67,2.33-1.22,4.45-2.71,6.25-4.65.13-.14.34-.22.57-.37.05.25.13.45.11.63-.47,3.44-.28,6.91-.26,10.36Zm14.57-55.41c.74,1.76.26,8.69-.65,11.23-.24-.08-.48-.16-.81-.26.94-3.63,1.25-7.3,1.46-10.97Zm-.84,22.49c.15-.33.46-.67.39-.87-.33-.85-.7-1.69-1.18-2.45-.44-.71-1.04-1.32-1.66-2.09-.13-1.49.06-3.08.37-4.63,2.31-.59,4.68.54,5.53,2.73,1.75,4.55-1.66,11.01-7.16,11.05.11-2.52.52-4.85.91-7.28,1.43.84,1.22,2.79,2.81,3.53ZM32.23,20.67c2.46-2.5,5.12-4.69,8.77-5.1,3.35-.37,6.61.07,9.7,1.47,2.37,1.08,4.75,2.14,7.11,3.23,1.58.73,3.22,1,4.94.86.26-.02.53,0,1.23,0-.49.4-.64.63-.82.66-1.9.34-3.78.39-5.61-.35-2.35-.95-4.71-1.88-7.04-2.88-2.99-1.27-6.13-1.81-9.31-1.4-2.66.34-5.21,1.24-7.32,3.06-.46.39-.95.75-1.67,1.31,0-.61-.06-.8,0-.86Zm-1.54,37.44c-.46-.04-.93,0-1.36-.12-4.89-1.35-6.75-6.3-6.04-10.04.48-2.51,2.51-3.92,5.62-3.95.54,1.67.63,3.26.62,4.92-1.24,1.41-2.56,2.8-2.86,4.77-.02.15.19.34.3.51,1.06,0,1.14-.9,1.5-1.53.34-.6.7-1.2,1.08-1.86.68,1.5,1.24,5.05,1.14,7.3Zm6.79,13.53c-2.33-2.07-3.68-4.76-4.15-7.88-.8-5.29-1.66-10.57-2.46-15.86-.58-3.84-.79-7.69-.66-11.58.12-3.62,1.26-6.9,3.09-9.98.32-.55.67-1.08.98-1.63.9-1.61,2.27-2.69,3.94-3.36,1.37-.55,2.79-.98,4.2-1.42,2.21-.69,4.42-.62,6.67-.06,3.29.82,6.47,1.94,9.6,3.23,2.88,1.18,5.89,1.37,8.93,1.13,1.55-.12,3.01-.72,4.39-1.44.43-.22.85-.45,1.32-.7.16,1.28.14,2.49.49,3.59.35,1.13,1.02,2.16,1.6,3.2,1.29,2.36,1.11,4.9.97,7.43-.1,1.9-.16,3.8-.35,5.69-.25,2.59-.56,5.18-.91,7.76-.62,4.46-1.32,8.91-1.93,13.38-.33,2.43-1.19,4.6-2.62,6.6-1.23,1.72-2.89,2.9-4.67,3.87-3.46,1.89-7.24,2.66-11.16,2.88-3.12.18-6.2-.24-9.24-.85-3.02-.6-5.74-1.98-8.03-4Zm-14.73,25.93c1.27-2.69,3.06-4.86,5.87-6.11,1.93-.86,3.83-1.8,5.67-2.83,1.47-.83,2.84-1.83,4.23-2.79.74-.51,1.41-1.11,2.33-1.64.36,2.11.19,3.95-.13,5.87-1-.28-.39-1.35-1.17-1.8-.11.2-.3.39-.33.6-.25,1.75.61,3.17,1.57,4.46,1.09,1.47,2.35,2.78,3.79,3.96,2.18,1.79,4.22,3.74,6.26,5.69,1.16,1.11,1.65,2.59,1.82,4.16.02.16-.16.35-.26.52,0,.01-.02.02-.03.03-.04.02-.11.02-.16.04-.09-.04-.23-.07-.3-.11-.03-.02-.05-.03-.06-.06-.83-1.86-2.39-2.88-4.15-3.71-1.93-.9-3.88-1.53-6.03-1.79-2.15-.26-4.28-.88-6.35-1.53-3.4-1.07-6.05-3.01-6.76-7.07-.51,2.15-.2,3.55.99,5.05.9,1.13,2.07,1.91,3.37,2.49,2.65,1.2,5.42,2.07,8.34,2.18,2.62.1,4.95,1.01,7.26,2.07.87.4,1.7.9,2.31,2.04-.57-.14-.9-.22-1.22-.31-3.84-1.08-7.83-.87-11.74-1.35-2.93-.36-5.86-.83-8.75-1.47-2.07-.46-3.96-1.48-5.58-2.9-1.49-1.31-1.61-1.92-.78-3.68Zm-13.5,23.13c-1.11-.18-2.25-.19-3.37-.29-1.47-.13-2.94-.28-4.25-1.1.26-2.45,1.24-4.57,2.44-6.55,1.06-1.74,2.36-3.34,3.65-4.92,1.22-1.5,2.8-2.51,4.6-3.29,2.85-1.22,5.62-2.61,8.53-3.98,1.66,2.42,4.05,3.85,6.74,4.84.72.27,1.48.46,2.24.62,4.57.96,9.17,1.56,13.85,1.54,2.76-.01,5.41.63,8.08,1.13-.95,1.97-1.92,3.84-2.75,5.76-.33.75-.49,1.62-.51,2.44-.02,1.19,1.09,1.76,2.06,1.08.62-.43,1.2-1.02,1.59-1.66.69-1.14,1.23-2.37,1.83-3.57.21-.42.43-.84.71-1.41.43,1.34.74,2.5,1.16,3.61.43,1.12,1.08,1.61,1.61,1.31.8-.45.53-1.24.39-1.9-.17-.82-.49-1.61-.75-2.42-.32-1-.66-1.99-.81-3.14,2.97-.61,5.85-1.25,8.82-1.24,4.46,0,8.86-.58,13.22-1.47,3.71-.76,6.94-2.31,9.35-5.52.94.43,1.89.84,2.83,1.28,2.04.96,4.06,1.96,6.12,2.87,1.31.58,2.48,1.33,3.48,2.35,2.71,2.75,4.84,5.88,6.16,9.52.26.71.39,1.48.61,2.34-.63.23-1.13.49-1.65.6-3.48.69-6.97.93-10.52.54-3.36-.37-6.74-.66-10.11-.86-2.25-.13-4.52-.08-6.77-.03-3.24.08-6.49.18-9.73.39-4.36.28-8.72.62-13.08,1.04-3.86.37-7.71.88-11.56,1.3-.98.11-1.97.18-2.96.17-5.22-.04-10.45-.04-15.66-.19-5.21-.15-10.43-.41-15.6-1.23Z"/>
  <path class="cls-1" d="m45.79,33.55c.7-.03,1.39-.22,2.08-.33.6-.1,1.07-.36,1.15-1.04.09-.74,0-1.45-.72-1.84-.48-.27-1.03-.45-1.57-.58-3.02-.76-6.03-.48-8.94.43-1.46.45-2.83,1.23-4.17,1.99-.89.5-1.54,1.25-1.13,2.44,1.06.81,2.19.33,3.26.15,3.33-.58,6.66-1.09,10.04-1.22Z"/>
  <path class="cls-1" d="m58.46,32.38c.35,0,.7.02,1.06.03,1.62.08,3.24.13,4.85.24,2.39.16,4.78.37,7.46.57.12,0,.55,0,.97,0,.07,0,.14,0,.21-.02.69-.12,1.09-.87.67-1.44-.41-.54-.94-1.06-1.52-1.4-3.71-2.13-7.69-2.62-11.84-1.7-.88.2-1.72.63-2.52,1.06-.66.35-.91,1.18-.68,1.83.22.62.74.8,1.34.81Z"/>
  <path class="cls-1" d="m47.1,42.72c-.31-.12-.61-.26-.91-.36-.31-.1-.63-.16-1.03-.25.19-.88.34-1.61.52-2.44.98.36,1.87.69,3.16,1.17-.37-.7-.47-1.1-.73-1.33-1.03-.94-2.36-1.26-3.68-1.5-3.22-.58-6.17-.02-8.59,2.37-.25.24-.53.52-.63.83-.08.25.11.57.24,1.11.74-.6,1.26-1.04,1.8-1.46.59-.45,1.15-1.02,2.06-.95.27.85.51,1.62.77,2.42-.69.22-1.28.4-1.86.58,1.52.5,7.8.47,8.6.25.09-.03.14-.22.27-.45Z"/>
  <path class="cls-1" d="m71.21,38.85c-1.31-1.3-2.92-1.93-4.73-1.99-2.77-.1-5.26.71-7.42,2.46-.11.09-.12.3-.19.47,1.01.21,1.62-1.02,2.68-.51.04.68.09,1.36.13,1.96-.54.39-.97.7-1.76,1.27,1.88-.22,3.33-.36,4.77-.56,1.41-.2,2.87.27,4.37-.17-.4-1.04-1.43-.71-2-1.27.27-.61.55-1.23.82-1.83,1.15.09,1.88.82,2.74,1.26.35.18.8.39,1.07-.17-.03-.14-.02-.29-.08-.4-.1-.18-.24-.35-.38-.5Z"/>
  <path class="cls-1" d="m54.05,56.67c.94.09,1.57-.49,2.15-1.38-.39.08-.65.15-.91.19-2.26.39-3.81-.77-3.8-3,0-1.04.18-2.12.52-3.1.68-1.94,1.09-3.9,1.36-5.94.32-2.51-.01-4.9-.62-7.3-.08-.33-.38-.62-.58-.92-.11.7.01,1.3.16,1.9.6,2.38.59,4.73-.25,7.06-.43,1.19-.83,2.39-1.22,3.59-.31.94-.67,1.86-.87,2.82-.4,1.9-.04,3.61,1.38,5.06.77.79,1.72.92,2.69,1.01Z"/>
  <path class="cls-1" d="m46.72,62.05c-.08.62.37.92.82,1.06.73.23,1.49.46,2.24.47,4.32.05,8.3-1.2,12.02-3.33.7-.4,1.31-.95,1.65-2.07-.54.17-.86.26-1.16.38-1.17.48-2.32.99-3.49,1.46-2.62,1.05-5.32,1.82-8.16,1.88-.9.02-1.8-.19-2.7-.32-.69-.1-1.18.07-1.23.47Z"/>
  <path class="cls-1" d="m55.73,65.81c-1.31.05-2.63.09-3.93.22-.21.02-.47.48-.53.76-.03.17.28.53.49.59,1.4.35,2.77.33,3.99-.56.18-.14.24-.45.33-.64-.18-.19-.27-.37-.36-.37Z"/>
</svg>